<svg width="179" height="41" viewBox="0 0 179 41" fill="none" xmlns="http://www.w3.org/2000/svg">
<mask id="mask0_12_22" style="mask-type:luminance" maskUnits="userSpaceOnUse" x="0" y="0" width="40" height="41">
<path d="M0 0H40V41H0V0Z" fill="white"/>
</mask>
<g mask="url(#mask0_12_22)">
<path fill-rule="evenodd" clip-rule="evenodd" d="M13.715 0.516011C11.458 0.516011 9.29501 1.41201 7.69901 3.00801L6.7082e-06 10.707V14.231C6.7082e-06 16.721 1.07001 18.961 2.77401 20.516C1.89888 21.3124 1.2 22.2831 0.722271 23.3657C0.244541 24.4482 -0.00148113 25.6187 6.7082e-06 26.802V30.326L7.69901 38.024C8.51218 38.8373 9.48182 39.4773 10.5493 39.9052C11.6168 40.3332 12.76 40.5403 13.9098 40.5139C15.0596 40.4875 16.1921 40.2283 17.2389 39.7519C18.2857 39.2755 19.225 38.5917 20 37.742C20.7751 38.5916 21.7145 39.2752 22.7612 39.7516C23.808 40.2279 24.9405 40.4871 26.0902 40.5135C27.24 40.5398 28.3831 40.3328 29.4506 39.9049C30.5181 39.477 31.4878 38.8372 32.301 38.024L40 30.326V26.802C40 24.312 38.93 22.072 37.226 20.516C38.101 19.7197 38.7998 18.7492 39.2775 17.6668C39.7553 16.5844 40.0014 15.4141 40 14.231V10.707L32.301 3.00701C31.4877 2.1939 30.518 1.55412 29.4504 1.12632C28.3829 0.69853 27.2397 0.491608 26.09 0.518059C24.9402 0.54451 23.8078 0.803787 22.7611 1.28022C21.7143 1.75665 20.7751 2.44036 20 3.29001C19.2037 2.41501 18.2332 1.7162 17.1508 1.23848C16.0684 0.760752 14.8981 0.514662 13.715 0.516011ZM25.759 20.516C25.663 20.4282 25.5689 20.3382 25.477 20.246L20 14.77L14.523 20.247C14.4311 20.3392 14.3371 20.4292 14.241 20.517C14.337 20.604 14.431 20.694 14.523 20.786L20 26.262L25.477 20.786C25.569 20.693 25.663 20.604 25.759 20.516ZM22.222 30.326V32.008C22.2218 32.8117 22.4599 33.5974 22.9063 34.2657C23.3527 34.934 23.9872 35.4549 24.7297 35.7626C25.4722 36.0702 26.2892 36.1508 27.0774 35.994C27.8657 35.8373 28.5897 35.4503 29.158 34.882L35.556 28.485V26.802C35.5564 25.9981 35.3183 25.2122 34.8719 24.5437C34.4255 23.8751 33.7908 23.354 33.0481 23.0464C32.3055 22.7387 31.4882 22.6582 30.6998 22.8151C29.9114 22.9721 29.1872 23.3594 28.619 23.928L22.222 30.326ZM17.778 30.326L11.381 23.928C10.8128 23.3594 10.0888 22.9722 9.30047 22.8152C8.51215 22.6582 7.69498 22.7386 6.95235 23.0462C6.20972 23.3537 5.57501 23.8747 5.12851 24.543C4.68201 25.2114 4.4438 25.9972 4.44401 26.801V28.485L10.841 34.882C11.4092 35.4506 12.1332 35.8379 12.9215 35.9948C13.7099 36.1518 14.527 36.0714 15.2697 35.7639C16.0123 35.4563 16.647 34.9354 17.0935 34.267C17.54 33.5986 17.7782 32.8128 17.778 32.009V30.326ZM17.778 9.02401V10.707L11.381 17.104C10.8128 17.6726 10.0888 18.0599 9.30047 18.2168C8.51215 18.3738 7.69498 18.2934 6.95235 17.9859C6.20972 17.6783 5.57501 17.1574 5.12851 16.489C4.68201 15.8206 4.4438 15.0348 4.44401 14.231V12.548L10.841 6.15101C11.4092 5.58244 12.1332 5.19516 12.9215 5.03819C13.7099 4.88122 14.527 4.9616 15.2697 5.26916C16.0123 5.57673 16.647 6.09765 17.0935 6.76603C17.54 7.43441 17.7782 8.22021 17.778 9.02401ZM28.619 17.104L22.222 10.707V9.02401C22.222 8.22042 22.4603 7.43487 22.9067 6.7667C23.3532 6.09854 23.9877 5.57776 24.7302 5.27024C25.4726 4.96272 26.2895 4.88226 27.0777 5.03903C27.8658 5.19581 28.5898 5.58278 29.158 6.15101L35.556 12.548V14.231C35.5562 15.0348 35.318 15.8206 34.8715 16.489C34.425 17.1574 33.7903 17.6783 33.0477 17.9859C32.305 18.2934 31.4879 18.3738 30.6995 18.2168C29.9112 18.0599 29.1872 17.6726 28.619 17.104Z" fill="#EF5851"/>
</g>
<path d="M54.318 29V12.2H65.802V15.296H57.87V18.896H64.59V21.764H57.87V25.868H65.898V29H54.318ZM67.136 29.024L71.504 22.988L67.364 16.88H71.792L73.94 20.564L76.028 16.88H80.348L76.328 22.916L80.66 29H76.172L73.82 25.304L71.432 28.964L67.136 29.024ZM87.429 29.36C86.133 29.36 85.109 28.996 84.357 28.268C83.613 27.532 83.241 26.424 83.241 24.944V13.388H86.745V16.88H89.757V19.688H86.745V24.308C86.745 25.02 86.893 25.52 87.189 25.808C87.485 26.096 87.881 26.24 88.377 26.24C88.633 26.24 88.881 26.212 89.121 26.156C89.369 26.092 89.597 26.004 89.805 25.892L90.297 28.652C89.937 28.852 89.505 29.02 89.001 29.156C88.4885 29.2942 87.9598 29.3628 87.429 29.36ZM80.781 19.688V16.88H83.589V19.688H80.781ZM97.907 29.36C96.587 29.36 95.427 29.092 94.427 28.556C93.4513 28.0432 92.6401 27.2654 92.087 26.312C91.527 25.352 91.247 24.228 91.247 22.94C91.247 22.004 91.407 21.144 91.727 20.36C92.0402 19.5979 92.5057 18.9078 93.095 18.332C93.6909 17.7535 94.3968 17.3005 95.171 17C95.971 16.68 96.847 16.52 97.799 16.52C98.847 16.52 99.775 16.704 100.583 17.072C101.372 17.4196 102.068 17.9502 102.611 18.62C103.147 19.276 103.519 20.048 103.727 20.936C103.943 21.824 103.963 22.788 103.787 23.828H94.499C94.499 24.388 94.643 24.876 94.931 25.292C95.227 25.708 95.639 26.036 96.167 26.276C96.703 26.508 97.327 26.624 98.039 26.624C98.743 26.624 99.415 26.528 100.055 26.336C100.701 26.141 101.313 25.8453 101.867 25.46L103.031 27.86C102.647 28.156 102.167 28.42 101.591 28.652C101.015 28.876 100.403 29.048 99.755 29.168C99.1468 29.2927 98.5278 29.357 97.907 29.36ZM94.703 21.416H100.427C100.403 20.704 100.151 20.14 99.671 19.724C99.199 19.308 98.547 19.1 97.715 19.1C96.883 19.1 96.191 19.308 95.639 19.724C95.095 20.14 94.783 20.704 94.703 21.416ZM105.83 29V16.88H109.334V18.248C109.798 17.64 110.346 17.2 110.978 16.928C111.611 16.6573 112.293 16.5185 112.982 16.52C114.11 16.52 115.038 16.744 115.766 17.192C116.502 17.632 117.046 18.204 117.398 18.908C117.758 19.612 117.938 20.352 117.938 21.128V29H114.434V22.22C114.434 21.452 114.218 20.84 113.786 20.384C113.362 19.928 112.746 19.7 111.938 19.7C111.426 19.7 110.974 19.816 110.582 20.048C110.19 20.272 109.882 20.588 109.658 20.996C109.442 21.404 109.334 21.876 109.334 22.412V29H105.83ZM125.12 29.348C124.04 29.348 123.044 29.208 122.132 28.928C121.22 28.64 120.44 28.248 119.792 27.752L120.932 25.304C121.566 25.7369 122.256 26.0801 122.984 26.324C123.72 26.564 124.428 26.684 125.108 26.684C125.78 26.684 126.296 26.584 126.656 26.384C127.024 26.176 127.208 25.88 127.208 25.496C127.208 25.152 127.044 24.9 126.716 24.74C126.396 24.572 125.772 24.392 124.844 24.2C123.244 23.912 122.076 23.46 121.34 22.844C120.604 22.22 120.236 21.364 120.236 20.276C120.236 19.508 120.448 18.832 120.872 18.248C121.304 17.664 121.896 17.212 122.648 16.892C123.4 16.564 124.264 16.4 125.24 16.4C126.2 16.4 127.104 16.532 127.952 16.796C128.808 17.052 129.54 17.412 130.148 17.876L129.044 20.336C128.705 20.0681 128.334 19.8425 127.94 19.664C127.525 19.4697 127.091 19.3208 126.644 19.22C126.213 19.1101 125.769 19.0537 125.324 19.052C124.74 19.052 124.268 19.152 123.908 19.352C123.548 19.544 123.368 19.816 123.368 20.168C123.368 20.52 123.532 20.78 123.86 20.948C124.188 21.116 124.8 21.3 125.696 21.5C127.368 21.852 128.556 22.32 129.26 22.904C129.972 23.48 130.328 24.292 130.328 25.34C130.328 26.148 130.108 26.852 129.668 27.452C129.236 28.052 128.628 28.52 127.844 28.856C127.068 29.184 126.16 29.348 125.12 29.348ZM132.533 29V16.88H136.037V29H132.533ZM134.285 14.96C133.732 14.9711 133.194 14.779 132.773 14.42C132.349 14.052 132.137 13.564 132.137 12.956C132.137 12.34 132.349 11.852 132.773 11.492C133.191 11.1262 133.73 10.9293 134.285 10.94C134.84 10.9293 135.379 11.1262 135.797 11.492C136.221 11.852 136.433 12.34 136.433 12.956C136.433 13.564 136.221 14.052 135.797 14.42C135.376 14.779 134.838 14.9711 134.285 14.96ZM144.647 29.36C143.343 29.36 142.187 29.068 141.179 28.484C140.199 27.9271 139.38 27.1248 138.803 26.156C138.235 25.1801 137.941 24.0691 137.951 22.94C137.951 22.084 138.115 21.272 138.443 20.504C138.767 19.7346 139.24 19.0371 139.835 18.452C140.435 17.852 141.143 17.38 141.959 17.036C142.775 16.692 143.671 16.52 144.647 16.52C145.951 16.52 147.103 16.812 148.103 17.396C149.084 17.9532 149.9 18.7607 150.467 19.736C151.043 20.704 151.331 21.772 151.331 22.94C151.331 23.788 151.167 24.6 150.839 25.376C150.514 26.148 150.041 26.8491 149.447 27.44C148.841 28.0412 148.124 28.5181 147.335 28.844C146.519 29.188 145.623 29.36 144.647 29.36ZM144.647 26.324C145.263 26.324 145.815 26.188 146.303 25.916C146.791 25.636 147.175 25.244 147.455 24.74C147.735 24.228 147.875 23.628 147.875 22.94C147.875 22.244 147.735 21.644 147.455 21.14C147.196 20.6495 146.8 20.245 146.315 19.976C145.827 19.696 145.271 19.556 144.647 19.556C144.023 19.556 143.463 19.696 142.967 19.976C142.479 20.248 142.095 20.636 141.815 21.14C141.543 21.644 141.407 22.244 141.407 22.94C141.407 23.636 141.547 24.236 141.827 24.74C142.107 25.244 142.491 25.636 142.979 25.916C143.467 26.188 144.023 26.324 144.647 26.324ZM153.235 29V16.88H156.739V18.248C157.203 17.64 157.751 17.2 158.383 16.928C159.016 16.6573 159.698 16.5185 160.387 16.52C161.515 16.52 162.443 16.744 163.171 17.192C163.907 17.632 164.451 18.204 164.803 18.908C165.163 19.612 165.343 20.352 165.343 21.128V29H161.839V22.22C161.839 21.452 161.623 20.84 161.191 20.384C160.767 19.928 160.151 19.7 159.343 19.7C158.831 19.7 158.379 19.816 157.987 20.048C157.595 20.272 157.287 20.588 157.063 20.996C156.847 21.404 156.739 21.876 156.739 22.412V29H153.235ZM172.526 29.348C171.446 29.348 170.45 29.208 169.538 28.928C168.626 28.64 167.846 28.248 167.198 27.752L168.338 25.304C168.972 25.7369 169.662 26.0801 170.39 26.324C171.126 26.564 171.834 26.684 172.514 26.684C173.186 26.684 173.702 26.584 174.062 26.384C174.43 26.176 174.614 25.88 174.614 25.496C174.614 25.152 174.45 24.9 174.122 24.74C173.802 24.572 173.178 24.392 172.25 24.2C170.65 23.912 169.482 23.46 168.746 22.844C168.01 22.22 167.642 21.364 167.642 20.276C167.642 19.508 167.854 18.832 168.278 18.248C168.71 17.664 169.302 17.212 170.054 16.892C170.806 16.564 171.67 16.4 172.646 16.4C173.606 16.4 174.51 16.532 175.358 16.796C176.214 17.052 176.946 17.412 177.554 17.876L176.45 20.336C176.111 20.0681 175.74 19.8425 175.346 19.664C174.931 19.4697 174.497 19.3208 174.05 19.22C173.619 19.1101 173.175 19.0537 172.73 19.052C172.146 19.052 171.674 19.152 171.314 19.352C170.954 19.544 170.774 19.816 170.774 20.168C170.774 20.52 170.938 20.78 171.266 20.948C171.594 21.116 172.206 21.3 173.102 21.5C174.774 21.852 175.962 22.32 176.666 22.904C177.378 23.48 177.734 24.292 177.734 25.34C177.734 26.148 177.514 26.852 177.074 27.452C176.642 28.052 176.034 28.52 175.25 28.856C174.474 29.184 173.566 29.348 172.526 29.348Z" fill="#FCFFFF"/>
</svg>
